<svg width="20" height="20" viewBox="0 0 20 20" fill="none" xmlns="http://www.w3.org/2000/svg">
<path d="M8 3.50016H3C2.46957 3.50016 1.96086 3.71088 1.58579 4.08595C1.21071 4.46102 1 4.96973 1 5.50016V16.5002C1 17.0306 1.21071 17.5393 1.58579 17.9144C1.96086 18.2894 2.46957 18.5002 3 18.5002H14C14.5304 18.5002 15.0391 18.2894 15.4142 17.9144C15.7893 17.5393 16 17.0306 16 16.5002V11.5002M14.586 2.08616C14.7705 1.89514 14.9912 1.74278 15.2352 1.63796C15.4792 1.53314 15.7416 1.47797 16.0072 1.47566C16.2728 1.47335 16.5361 1.52396 16.7819 1.62452C17.0277 1.72508 17.251 1.87359 17.4388 2.06137C17.6266 2.24916 17.7751 2.47246 17.8756 2.71825C17.9762 2.96405 18.0268 3.22741 18.0245 3.49296C18.0222 3.75852 17.967 4.02096 17.8622 4.26497C17.7574 4.50898 17.605 4.72967 17.414 4.91416L8.828 13.5002H6V10.6722L14.586 2.08616Z" stroke="#94A3B8" stroke-width="2" stroke-linecap="round" stroke-linejoin="round"/>
</svg>
