<svg width="131" height="24" viewBox="0 0 131 24" fill="none" xmlns="http://www.w3.org/2000/svg">
<g clip-path="url(#clip0_3_597)">
<path d="M19.4851 6.41517C20.3769 7.29436 21.0856 8.34158 21.5702 9.49631C22.0548 10.651 22.3058 11.8904 22.3085 13.1427C22.3113 14.395 22.0658 15.6354 21.5862 16.7922C21.1067 17.9491 20.4026 18.9994 19.5147 19.8825C18.4159 20.978 17.112 21.8461 15.6775 22.4373C14.243 23.0284 12.706 23.331 11.1544 23.3277C9.43043 23.3315 7.72651 22.9577 6.16246 22.2325C4.59842 21.5073 3.21221 20.4482 2.1013 19.1299C6.73061 22.9539 13.6248 22.7138 17.9709 18.4119C18.6663 17.7263 19.2185 16.9092 19.5954 16.0083C19.9723 15.1074 20.1664 14.1405 20.1664 13.1639C20.1664 12.1873 19.9723 11.2205 19.5954 10.3195C19.2185 9.41861 18.6663 8.60156 17.9709 7.9159C15.0427 5.0172 10.2952 5.0172 7.36699 7.9159C7.0688 8.20973 6.83201 8.55992 6.67039 8.9461C6.50876 9.33228 6.42553 9.74674 6.42553 10.1654C6.42553 10.584 6.50876 10.9985 6.67039 11.3846C6.83201 11.7708 7.0688 12.121 7.36699 12.4148C7.97257 13.0119 8.78883 13.3466 9.63926 13.3466C10.4897 13.3466 11.3059 13.0119 11.9115 12.4148C12.1134 12.2158 12.3855 12.1042 12.669 12.1042C12.9524 12.1042 13.2245 12.2158 13.4264 12.4148C13.5256 12.5128 13.6043 12.6294 13.6581 12.758C13.7118 12.8866 13.7395 13.0245 13.7395 13.1639C13.7395 13.3033 13.7118 13.4413 13.6581 13.5699C13.6043 13.6985 13.5256 13.8151 13.4264 13.913C12.4171 14.9079 11.0568 15.4657 9.63958 15.4657C8.22236 15.4657 6.86206 14.9079 5.85278 13.913C5.35617 13.4232 4.96183 12.8397 4.69268 12.1962C4.42352 11.5527 4.28492 10.8622 4.28492 10.1647C4.28492 9.46724 4.42352 8.77671 4.69268 8.13324C4.96183 7.48978 5.35617 6.90622 5.85278 6.41646C9.61646 2.68874 15.7202 2.68874 19.4851 6.41646V6.41517ZM11.1544 2.82917e-05C12.8784 -0.00374611 14.5822 0.370182 16.1462 1.09552C17.7101 1.82086 19.0962 2.87999 20.2069 4.19845C15.577 0.374406 8.68212 0.615214 4.33858 4.91445V4.91574C3.64307 5.60142 3.09078 6.4185 2.71382 7.31949C2.33686 8.22048 2.14273 9.18741 2.14273 10.1641C2.14273 11.1408 2.33686 12.1077 2.71382 13.0087C3.09078 13.9097 3.64307 14.7268 4.33858 15.4124C7.26553 18.3118 12.0124 18.3118 14.9406 15.4124C15.2387 15.1186 15.4754 14.7685 15.6369 14.3823C15.7985 13.9962 15.8817 13.5818 15.8817 13.1633C15.8817 12.7447 15.7985 12.3303 15.6369 11.9442C15.4754 11.5581 15.2387 11.208 14.9406 10.9141C14.335 10.3171 13.5187 9.98233 12.6683 9.98233C11.8179 9.98233 11.0016 10.3171 10.396 10.9141C10.1942 11.113 9.92226 11.2244 9.63894 11.2244C9.35562 11.2244 9.08367 11.113 8.88184 10.9141C8.78254 10.8162 8.7037 10.6995 8.64989 10.5709C8.59607 10.4422 8.56836 10.3042 8.56836 10.1647C8.56836 10.0253 8.59607 9.88722 8.64989 9.75857C8.7037 9.62992 8.78254 9.51325 8.88184 9.41533C9.89112 8.42041 11.2514 7.86265 12.6686 7.86265C14.0859 7.86265 15.4462 8.42041 16.4554 9.41533C16.952 9.90509 17.3464 10.4887 17.6155 11.1321C17.8847 11.7756 18.0233 12.4661 18.0233 13.1636C18.0233 13.8611 17.8847 14.5516 17.6155 15.1951C17.3464 15.8385 16.952 16.4221 16.4554 16.9119C12.6911 20.6396 6.58741 20.6396 2.82244 16.9119C1.92954 16.0314 1.22028 14.9824 0.735785 13.8258C0.251292 12.6691 0.00119894 11.4278 4.30021e-06 10.1738C-0.00119034 8.91982 0.246537 7.67805 0.728826 6.52049C1.21112 5.36293 1.91837 4.31262 2.8096 3.43043C5.02727 1.22714 8.02833 -0.00653734 11.1544 2.82917e-05V2.82917e-05Z" fill="url(#paint0_radial_3_597)"/>
<path d="M38.0234 17.653C38.1661 17.6539 38.3077 17.6264 38.4397 17.5721C38.5718 17.5179 38.6917 17.438 38.7927 17.337C38.8936 17.2361 38.9735 17.1161 39.0278 16.9841C39.082 16.852 39.1095 16.7105 39.1086 16.5678C39.1095 16.425 39.082 16.2835 39.0278 16.1514C38.9735 16.0194 38.8936 15.8994 38.7927 15.7985C38.6917 15.6975 38.5718 15.6176 38.4397 15.5634C38.3077 15.5092 38.1661 15.4817 38.0234 15.4825H33.6054V7.9025C33.6054 7.2353 33.0788 6.70809 32.4109 6.70809C32.2538 6.70697 32.0981 6.73712 31.9527 6.79676C31.8074 6.85641 31.6754 6.94437 31.5643 7.05552C31.4533 7.16667 31.3655 7.29879 31.306 7.4442C31.2465 7.58961 31.2165 7.7454 31.2178 7.9025V16.4592C31.2178 17.1264 31.7444 17.6524 32.4116 17.6524H38.024L38.0234 17.653ZM44.007 9.25103C45.2939 9.25103 46.2244 9.59201 46.8132 10.1809C47.4329 10.8018 47.7123 11.7156 47.7123 12.833V16.614C47.7123 17.2497 47.1998 17.7461 46.5647 17.7461C45.8827 17.7461 45.4326 17.2651 45.4326 16.77V16.7533C44.8592 17.3891 44.0693 17.8078 42.9218 17.8078C41.3562 17.8078 40.0699 16.9087 40.0699 15.2655V15.2346C40.0699 13.4212 41.4493 12.5838 43.4182 12.5838C44.11 12.5778 44.7975 12.6935 45.4493 12.9254V12.7855C45.4493 11.8087 44.8431 11.2661 43.666 11.2661C43.1148 11.2599 42.5658 11.3381 42.0382 11.4979C41.9293 11.539 41.8141 11.5603 41.6978 11.5609C41.1545 11.5609 40.7211 11.1422 40.7211 10.6002C40.7211 10.1924 40.9741 9.82768 41.3562 9.68512C42.1011 9.40579 42.9064 9.25103 44.007 9.25103V9.25103ZM43.9749 13.9946C42.9686 13.9946 42.3483 14.3979 42.3483 15.1415V15.1717C42.3483 15.8074 42.8755 16.1799 43.6358 16.1799H43.6352L43.7604 16.1773C44.75 16.1349 45.4236 15.5898 45.4763 14.8205L45.4795 14.7235V14.3042C45.0762 14.1186 44.5496 13.9946 43.9755 13.9946H43.9749ZM50.9211 17.7461C51.5723 17.7461 52.0982 17.2196 52.0982 16.5678V14.3664C52.0982 12.6923 52.766 11.7786 53.9592 11.4992C54.4395 11.3901 54.8421 11.0176 54.8421 10.3986C54.8421 9.73072 54.4234 9.25103 53.6959 9.25103C52.9972 9.25103 52.4398 9.99529 52.0995 10.8018V10.4294C52.0995 10.1169 51.9753 9.81714 51.7543 9.59616C51.5334 9.37517 51.2336 9.25103 50.9211 9.25103C50.6086 9.25103 50.3089 9.37517 50.0879 9.59616C49.8669 9.81714 49.7428 10.1169 49.7428 10.4294V16.5684C49.7428 17.2189 50.2693 17.7455 50.9198 17.7455L50.9211 17.7461V17.7461ZM59.2756 9.25103C60.5631 9.25103 61.4929 9.59201 62.0818 10.1809C62.7015 10.8018 62.9808 11.7156 62.9808 12.833V16.614C62.9808 17.2497 62.469 17.7461 61.8339 17.7461C61.1513 17.7461 60.7018 17.2651 60.7018 16.77V16.7533C60.1284 17.3891 59.3385 17.8084 58.1903 17.8084C56.6247 17.8078 55.3392 16.9087 55.3392 15.2655V15.2346C55.3392 13.4212 56.7185 12.5838 58.6874 12.5838C59.379 12.5779 60.0663 12.6935 60.7179 12.9254V12.7855C60.7179 11.8087 60.1123 11.2661 58.9352 11.2661C58.384 11.2599 57.835 11.3381 57.3074 11.4979C57.1985 11.539 57.0833 11.5603 56.967 11.5609C56.4231 11.5609 55.9897 11.1422 55.9897 10.6002C55.9897 10.1924 56.2433 9.82768 56.6254 9.68512C57.3703 9.40579 58.1749 9.25103 59.2756 9.25103V9.25103ZM59.2448 13.9946C58.2378 13.9946 57.6175 14.3979 57.6175 15.1415V15.1717C57.6175 15.8074 58.1447 16.1799 58.9038 16.1799C60.0044 16.1799 60.748 15.5763 60.748 14.7235V14.3042C60.3454 14.1186 59.8188 13.9946 59.2448 13.9946V13.9946ZM68.3441 17.8238C68.9798 17.8238 69.4146 17.4045 69.6772 16.8009L72.2195 10.9251C72.2658 10.8166 72.3441 10.5687 72.3441 10.3671C72.3443 10.2191 72.315 10.0725 72.2579 9.9359C72.2009 9.79931 72.1172 9.67546 72.0117 9.57156C71.9063 9.46767 71.7812 9.38582 71.6438 9.33079C71.5064 9.27575 71.3593 9.24864 71.2113 9.25103C70.5917 9.25103 70.2661 9.6543 70.112 10.0569L68.2979 14.9091L66.5159 10.0878C66.3444 9.60742 66.0034 9.25103 65.3677 9.25103C64.7326 9.25103 64.2208 9.79365 64.2208 10.3517C64.2208 10.5687 64.2831 10.7704 64.3454 10.9258L66.8877 16.8009C67.151 17.4205 67.5851 17.8238 68.2202 17.8238H68.3448H68.3441V17.8238ZM77.3195 9.18874C80.0943 9.18874 81.3189 11.4684 81.3189 13.1881C81.3189 13.8707 80.8386 14.3202 80.2182 14.3202H75.553C75.7854 15.3894 76.529 15.9481 77.5835 15.9481C78.1881 15.953 78.7771 15.7565 79.2576 15.3894C79.421 15.2616 79.6243 15.1956 79.8317 15.2032C80.3582 15.2032 80.7454 15.6077 80.7454 16.1337C80.7454 16.4438 80.6067 16.6769 80.4353 16.831C79.7071 17.452 78.7612 17.8392 77.552 17.8392C75.0566 17.8392 73.2123 16.0874 73.2123 13.5451V13.5149C73.2123 11.1422 74.9012 9.18874 77.3195 9.18874V9.18874ZM77.3195 11.0799C76.3435 11.0799 75.7077 11.7773 75.5215 12.8477H79.0713C78.932 11.7933 78.3117 11.0799 77.3195 11.0799V11.0799ZM84.4045 17.7461C85.0556 17.7461 85.5815 17.2196 85.5815 16.5678V7.42088C85.5815 7.10853 85.4575 6.80897 85.2366 6.58811C85.0157 6.36724 84.7162 6.24316 84.4038 6.24316C84.0915 6.24316 83.7919 6.36724 83.571 6.58811C83.3502 6.80897 83.2261 7.10853 83.2261 7.42088V16.5678C83.2261 17.2189 83.7527 17.7448 84.4032 17.7448L84.4045 17.7468V17.7461ZM93.8763 17.7461C94.5268 17.7461 95.0533 17.2196 95.0533 16.5678V10.7543L99.8278 17.0173C100.153 17.4366 100.495 17.7147 101.067 17.7147H101.146C101.812 17.7147 102.339 17.1881 102.339 16.5215V7.88773C102.339 7.57521 102.215 7.27549 101.994 7.0545C101.773 6.83352 101.473 6.70937 101.161 6.70937C100.848 6.70937 100.549 6.83352 100.328 7.0545C100.107 7.27549 99.9825 7.57521 99.9825 7.88773V13.4828L95.3783 7.43693C95.054 7.01889 94.7124 6.73955 94.1389 6.73955H93.891C93.7339 6.73835 93.5782 6.76842 93.4328 6.82798C93.2874 6.88755 93.1553 6.97544 93.0442 7.08653C92.9332 7.19762 92.8453 7.3297 92.7857 7.47507C92.7261 7.62045 92.6961 7.77622 92.6973 7.93332V16.5671C92.6973 17.2183 93.2238 17.7461 93.875 17.7461H93.8756H93.8763ZM108.803 9.18874C111.376 9.18874 113.282 11.0959 113.282 13.4828V13.5137C113.282 15.9018 111.36 17.8386 108.772 17.8386C106.199 17.8386 104.292 15.9314 104.292 13.5451V13.5149C104.292 11.1268 106.214 9.18874 108.803 9.18874V9.18874ZM108.772 11.2199C107.423 11.2199 106.617 12.2582 106.617 13.4828V13.5137C106.617 14.7383 107.5 15.8081 108.803 15.8081C110.151 15.8081 110.957 14.7697 110.957 13.5451V13.5137C110.957 12.2904 110.074 11.2199 108.772 11.2199ZM118.274 17.8238C118.91 17.8238 119.343 17.4045 119.607 16.8009L122.149 10.9251C122.195 10.8166 122.274 10.5687 122.274 10.3671C122.275 10.2191 122.245 10.0725 122.188 9.9359C122.131 9.79931 122.047 9.67546 121.942 9.57156C121.837 9.46767 121.711 9.38582 121.574 9.33079C121.437 9.27575 121.29 9.24864 121.142 9.25103C120.521 9.25103 120.196 9.6543 120.042 10.0569L118.227 14.9091L116.444 10.0878C116.275 9.60742 115.933 9.25103 115.297 9.25103C114.662 9.25103 114.15 9.79365 114.15 10.3517C114.15 10.5687 114.213 10.7704 114.275 10.9258L116.817 16.8009C117.081 17.4205 117.515 17.8238 118.15 17.8238H118.274V17.8238ZM127.11 9.25103C128.397 9.25103 129.327 9.59201 129.915 10.1809C130.536 10.8018 130.814 11.7156 130.814 12.833V16.614C130.814 17.2497 130.303 17.7461 129.668 17.7461C128.986 17.7461 128.537 17.2651 128.537 16.77V16.7533C127.963 17.3891 127.171 17.8078 126.026 17.8078C124.459 17.8078 123.172 16.9087 123.172 15.2655V15.2346C123.172 13.4212 124.552 12.5838 126.521 12.5838C127.213 12.5779 127.9 12.6935 128.551 12.9254V12.7855C128.551 11.8087 127.947 11.2661 126.769 11.2661C126.218 11.2599 125.669 11.3381 125.141 11.4979C125.032 11.539 124.917 11.5603 124.801 11.5609C124.258 11.5609 123.823 11.1422 123.823 10.6002C123.823 10.1918 124.077 9.82704 124.459 9.68512C125.203 9.40579 126.01 9.25103 127.11 9.25103V9.25103ZM127.079 13.9946C126.071 13.9946 125.451 14.3979 125.451 15.1415V15.1717C125.451 15.8074 125.978 16.1799 126.738 16.1799C127.839 16.1799 128.583 15.5763 128.583 14.7235V14.3042C128.18 14.1186 127.652 13.9946 127.079 13.9946V13.9946Z" fill="#475569"/>
</g>
<defs>
<radialGradient id="paint0_radial_3_597" cx="0" cy="0" r="1" gradientUnits="userSpaceOnUse" gradientTransform="translate(-1.70079 0.704986) rotate(32.7354) scale(22.3048 22.9143)">
<stop stop-color="#00FFC4"/>
<stop offset="1" stop-color="#00E1FF"/>
</radialGradient>
<clipPath id="clip0_3_597">
<rect width="131" height="23.7598" fill="white"/>
</clipPath>
</defs>
</svg>
